# xmcd CD database file
#
# Track frame offsets:
#	150
#	11490
#	21755
#	33732
#	45455
#	56770
#	68005
#	80852
#	93277
#	108272
#	123492
#
# Disc length: 1822 seconds
#
# Revision: 0
# Processed by: cddbd v1.4PL0 Copyright (c) Steve Scherf et al.
# Submitted via: CDex 1.51
#
DISCID=8b071c0b
DTITLE=Javier Solis - Romance
DYEAR=1900
DGENRE=Español
TTITLE0=Entrega total
TTITLE1=Esta noche pago yo
TTITLE2=El rostro mio
TTITLE3=No te maldigo
TTITLE4=Gracias
TTITLE5=Copa de vinmo
TTITLE6=La corriente
TTITLE7=El mal querido
TTITLE8=Cada quien su vida
TTITLE9=A pesar de todo
TTITLE10=Recuerdos de Ipacarai
EXTD=
EXTT0=
EXTT1=
EXTT2=
EXTT3=
EXTT4=
EXTT5=
EXTT6=
EXTT7=
EXTT8=
EXTT9=
EXTT10=
PLAYORDER=
